<?xml version="1.0" standalone="no"?>
<!DOCTYPE svg PUBLIC "-//W3C//DTD SVG 20010904//EN"
 "http://www.w3.org/TR/2001/REC-SVG-20010904/DTD/svg10.dtd">
<svg version="1.0" xmlns="http://www.w3.org/2000/svg"
 width="225.000000pt" height="225.000000pt" viewBox="0 0 225.000000 225.000000"
 preserveAspectRatio="xMidYMid meet">
<metadata>
Created by potrace 1.14, written by Peter Selinger 2001-2017
</metadata>
<g transform="translate(0.000000,225.000000) scale(0.100000,-0.100000)"
fill="#000000" stroke="none">
<path d="M0 1125 l0 -1125 1125 0 1125 0 0 1125 0 1125 -1125 0 -1125 0 0
-1125z m1082 480 c21 -49 38 -93 38 -97 0 -4 -29 -8 -65 -8 -55 0 -65 3 -65
17 0 34 -20 -5 -93 -184 l-74 -183 73 0 c59 0 74 -3 74 -15 0 -12 -15 -15 -78
-15 l-79 0 -33 -87 c-96 -254 -90 -243 -114 -243 -22 0 -11 29 156 433 99 237
184 442 189 455 15 38 31 21 71 -73z m289 -159 c85 -19 143 -58 168 -109 39
-81 23 -167 -41 -223 -46 -41 -124 -72 -140 -56 -9 9 -5 19 14 39 37 38 48 74
48 146 -1 135 -57 186 -202 187 l-78 0 0 -420 0 -420 88 0 c48 0 103 4 121 10
50 14 89 57 106 114 29 96 14 179 -46 251 -21 26 -39 51 -39 55 0 14 84 -10
130 -38 24 -15 58 -47 75 -71 27 -38 30 -51 30 -115 0 -63 -4 -79 -30 -122
-59 -94 -164 -124 -437 -124 l-128 0 0 455 0 455 153 0 c91 0 175 -6 208 -14z
m-103 -278 c50 -117 106 -250 126 -296 l36 -83 -72 3 -72 3 -57 140 -58 140
-1 153 c0 83 2 152 4 152 2 0 45 -96 94 -212z"/>
</g>
</svg>
